{
  "accessors": [
    {
      "bufferView": 2,
      "componentType": 5126,
      "count": 27390,
      "max": [
        0.21445119380950928,
        0.43997955322265625,
        4.083212852478027
      ],
      "min": [
        -0.21445125341415405,
        -0.9894404411315918,
        -0.4639720618724823
      ],
      "type": "VEC3"
    },
    {
      "bufferView": 2,
      "byteOffset": 328680,
      "componentType": 5126,
      "count": 27390,
      "max": [
        1.0,
        1.0,
        1.0
      ],
      "min": [
        -1.0,
        -1.0,
        -1.0
      ],
      "type": "VEC3"
    },
    {
      "bufferView": 1,
      "componentType": 5126,
      "count": 27390,
      "max": [
        0.9961599111557007,
        0.997752845287323
      ],
      "min": [
        0.002246931893751025,
        0.0022459938190877438
      ],
      "type": "VEC2"
    },
    {
      "bufferView": 1,
      "byteOffset": 219120,
      "componentType": 5126,
      "count": 27390,
      "max": [
        0.9961599111557007,
        0.997752845287323
      ],
      "min": [
        0.002246931893751025,
        0.0022459938190877438
      ],
      "type": "VEC2"
    },
    {
      "bufferView": 1,
      "byteOffset": 438240,
      "componentType": 5126,
      "count": 27390,
      "max": [
        0.9961599111557007,
        0.997752845287323
      ],
      "min": [
        0.002246931893751025,
        0.0022459938190877438
      ],
      "type": "VEC2"
    },
    {
      "bufferView": 1,
      "byteOffset": 657360,
      "componentType": 5126,
      "count": 27390,
      "max": [
        0.9961599111557007,
        0.997752845287323
      ],
      "min": [
        0.002246931893751025,
        0.0022459938190877438
      ],
      "type": "VEC2"
    },
    {
      "bufferView": 0,
      "componentType": 5125,
      "count": 58476,
      "type": "SCALAR"
    },
    {
      "bufferView": 2,
      "byteOffset": 657360,
      "componentType": 5126,
      "count": 3454,
      "max": [
        0.1317387819290161,
        0.6637730598449707,
        3.2800559997558594
      ],
      "min": [
        -0.1317387819290161,
        0.0009418725967407227,
        1.1282846927642822
      ],
      "type": "VEC3"
    },
    {
      "bufferView": 2,
      "byteOffset": 698808,
      "componentType": 5126,
      "count": 3454,
      "max": [
        1.0,
        1.0,
        1.0
      ],
      "min": [
        -1.0,
        -0.9999957084655762,
        -1.0
      ],
      "type": "VEC3"
    },
    {
      "bufferView": 1,
      "byteOffset": 876480,
      "componentType": 5126,
      "count": 3454,
      "max": [
        0.9733338952064514,
        0.9686473608016968
      ],
      "min": [
        0.002253988292068243,
        0.10145384073257446
      ],
      "type": "VEC2"
    },
    {
      "bufferView": 1,
      "byteOffset": 904112,
      "componentType": 5126,
      "count": 3454,
      "max": [
        0.9733338952064514,
        0.9686473608016968
      ],
      "min": [
        0.002253988292068243,
        0.10145384073257446
      ],
      "type": "VEC2"
    },
    {
      "bufferView": 1,
      "byteOffset": 931744,
      "componentType": 5126,
      "count": 3454,
      "max": [
        0.9733338952064514,
        0.9686473608016968
      ],
      "min": [
        0.002253988292068243,
        0.10145384073257446
      ],
      "type": "VEC2"
    },
    {
      "bufferView": 1,
      "byteOffset": 959376,
      "componentType": 5126,
      "count": 3454,
      "max": [
        0.9733338952064514,
        0.9686473608016968
      ],
      "min": [
        0.002253988292068243,
        0.10145384073257446
      ],
      "type": "VEC2"
    },
    {
      "bufferView": 0,
      "byteOffset": 233904,
      "componentType": 5125,
      "count": 5244,
      "type": "SCALAR"
    },
    {
      "bufferView": 2,
      "byteOffset": 740256,
      "componentType": 5126,
      "count": 1740,
      "max": [
        0.0744919702410698,
        -0.09453869611024857,
        1.7108206748962402
      ],
      "min": [
        -0.09014136344194412,
        -0.8062359094619751,
        1.318107008934021
      ],
      "type": "VEC3"
    },
    {
      "bufferView": 2,
      "byteOffset": 761136,
      "componentType": 5126,
      "count": 1740,
      "max": [
        1.0,
        1.0,
        1.0
      ],
      "min": [
        -1.0,
        -1.0,
        -0.9999762773513794
      ],
      "type": "VEC3"
    },
    {
      "bufferView": 1,
      "byteOffset": 987008,
      "componentType": 5126,
      "count": 1740,
      "max": [
        0.9900045990943909,
        0.9073056578636169
      ],
      "min": [
        0.00278296135365963,
        0.034239158034324646
      ],
      "type": "VEC2"
    },
    {
      "bufferView": 1,
      "byteOffset": 1000928,
      "componentType": 5126,
      "count": 1740,
      "max": [
        0.9900045990943909,
        0.9073056578636169
      ],
      "min": [
        0.00278296135365963,
        0.034239158034324646
      ],
      "type": "VEC2"
    },
    {
      "bufferView": 1,
      "byteOffset": 1014848,
      "componentType": 5126,
      "count": 1740,
      "max": [
        0.9900045990943909,
        0.9073056578636169
      ],
      "min": [
        0.00278296135365963,
        0.034239158034324646
      ],
      "type": "VEC2"
    },
    {
      "bufferView": 1,
      "byteOffset": 1028768,
      "componentType": 5126,
      "count": 1740,
      "max": [
        0.9900045990943909,
        0.9073056578636169
      ],
      "min": [
        0.00278296135365963,
        0.034239158034324646
      ],
      "type": "VEC2"
    },
    {
      "bufferView": 0,
      "byteOffset": 254880,
      "componentType": 5125,
      "count": 8310,
      "type": "SCALAR"
    }
  ],
  "asset": {
    "extras": {
      "author": "Frostoise (https://sketchfab.com/Frostoise)",
      "license": "CC-BY-4.0 (http://creativecommons.org/licenses/by/4.0/)",
      "source": "https://sketchfab.com/3d-models/famas-7d35e14ad8874d148ce9cc46e5765a6b",
      "title": "FAMAS"
    },
    "generator": "Sketchfab-12.81.0",
    "version": "2.0"
  },
  "bufferViews": [
    {
      "buffer": 0,
      "byteLength": 288120,
      "name": "floatBufferViews",
      "target": 34963
    },
    {
      "buffer": 0,
      "byteLength": 1042688,
      "byteOffset": 288120,
      "byteStride": 8,
      "name": "floatBufferViews",
      "target": 34962
    },
    {
      "buffer": 0,
      "byteLength": 782016,
      "byteOffset": 1330808,
      "byteStride": 12,
      "name": "floatBufferViews",
      "target": 34962
    }
  ],
  "buffers": [
    {
      "byteLength": 2112824,
      "uri": "scene.bin"
    }
  ],
  "images": [
    {
      "uri": "textures/Material.001_baseColor.png"
    },
    {
      "uri": "textures/Material.001_metallicRoughness.png"
    },
    {
      "uri": "textures/Material.002_baseColor.png"
    },
    {
      "uri": "textures/Material.002_metallicRoughness.png"
    },
    {
      "uri": "textures/Material.003_baseColor.png"
    },
    {
      "uri": "textures/Material.003_metallicRoughness.png"
    }
  ],
  "materials": [
    {
      "doubleSided": true,
      "name": "Material.001",
      "pbrMetallicRoughness": {
        "baseColorTexture": {
          "index": 0
        },
        "metallicFactor": 0.7906859684021734,
        "metallicRoughnessTexture": {
          "index": 1
        }
      }
    },
    {
      "doubleSided": true,
      "name": "Material.002",
      "pbrMetallicRoughness": {
        "baseColorTexture": {
          "index": 2
        },
        "metallicRoughnessTexture": {
          "index": 3
        }
      }
    },
    {
      "doubleSided": true,
      "name": "Material.003",
      "pbrMetallicRoughness": {
        "baseColorTexture": {
          "index": 4
        },
        "metallicFactor": 0.6450213127170034,
        "metallicRoughnessTexture": {
          "index": 5
        }
      }
    }
  ],
  "meshes": [
    {
      "name": "Object_0",
      "primitives": [
        {
          "attributes": {
            "NORMAL": 1,
            "POSITION": 0,
            "TEXCOORD_0": 2,
            "TEXCOORD_1": 3,
            "TEXCOORD_2": 4,
            "TEXCOORD_3": 5
          },
          "indices": 6,
          "material": 0,
          "mode": 4
        }
      ]
    },
    {
      "name": "Object_1",
      "primitives": [
        {
          "attributes": {
            "NORMAL": 8,
            "POSITION": 7,
            "TEXCOORD_0": 9,
            "TEXCOORD_1": 10,
            "TEXCOORD_2": 11,
            "TEXCOORD_3": 12
          },
          "indices": 13,
          "material": 1,
          "mode": 4
        }
      ]
    },
    {
      "name": "Object_2",
      "primitives": [
        {
          "attributes": {
            "NORMAL": 15,
            "POSITION": 14,
            "TEXCOORD_0": 16,
            "TEXCOORD_1": 17,
            "TEXCOORD_2": 18,
            "TEXCOORD_3": 19
          },
          "indices": 20,
          "material": 2,
          "mode": 4
        }
      ]
    }
  ],
  "nodes": [
    {
      "children": [
        1
      ],
      "matrix": [
        1.0,
        0.0,
        0.0,
        0.0,
        0.0,
        2.220446049250313e-16,
        -1.0,
        0.0,
        0.0,
        1.0,
        2.220446049250313e-16,
        0.0,
        0.0,
        -1.1102230246251565e-16,
        -2.465190328815662e-32,
        1.0
      ],
      "name": "Sketchfab_model"
    },
    {
      "children": [
        2
      ],
      "name": "root"
    },
    {
      "children": [
        3
      ],
      "matrix": [
        1.0,
        0.0,
        0.0,
        0.0,
        0.0,
        2.220446049250313e-16,
        1.0,
        0.0,
        0.0,
        -1.0,
        2.220446049250313e-16,
        0.0,
        0.0,
        0.0,
        0.0,
        1.0
      ],
      "name": "GLTF_SceneRootNode"
    },
    {
      "children": [
        4,
        5,
        6
      ],
      "matrix": [
        1.0,
        0.0,
        0.0,
        0.0,
        0.0,
        1.0,
        0.0,
        0.0,
        0.0,
        0.0,
        1.0,
        0.0,
        0.007875911891460419,
        1.0301918983459473,
        2.069150924682617,
        1.0
      ],
      "name": "Cube.024_4"
    },
    {
      "mesh": 0,
      "name": "Object_4"
    },
    {
      "mesh": 1,
      "name": "Object_5"
    },
    {
      "mesh": 2,
      "name": "Object_6"
    }
  ],
  "samplers": [
    {
      "magFilter": 9729,
      "minFilter": 9987,
      "wrapS": 10497,
      "wrapT": 10497
    }
  ],
  "scene": 0,
  "scenes": [
    {
      "name": "Sketchfab_Scene",
      "nodes": [
        0
      ]
    }
  ],
  "textures": [
    {
      "sampler": 0,
      "source": 0
    },
    {
      "sampler": 0,
      "source": 1
    },
    {
      "sampler": 0,
      "source": 2
    },
    {
      "sampler": 0,
      "source": 3
    },
    {
      "sampler": 0,
      "source": 4
    },
    {
      "sampler": 0,
      "source": 5
    }
  ]
}
