{
  "accessors": [
    {
      "bufferView": 2,
      "componentType": 5126,
      "count": 34789,
      "max": [
        5.602907180786133,
        19.015501022338867,
        44.165863037109375
      ],
      "min": [
        -3.8060269355773926,
        -15.32421588897705,
        -32.7611198425293
      ],
      "type": "VEC3"
    },
    {
      "bufferView": 2,
      "byteOffset": 417468,
      "componentType": 5126,
      "count": 34789,
      "max": [
        1.0,
        1.0,
        1.0
      ],
      "min": [
        -1.0,
        -1.0,
        -1.0
      ],
      "type": "VEC3"
    },
    {
      "bufferView": 3,
      "componentType": 5126,
      "count": 34789,
      "max": [
        1.0,
        1.0,
        1.0,
        1.0
      ],
      "min": [
        -1.0,
        -1.0,
        -1.0,
        -1.0
      ],
      "type": "VEC4"
    },
    {
      "bufferView": 1,
      "componentType": 5126,
      "count": 34789,
      "max": [
        0.9970703125,
        0.9963531494140625
      ],
      "min": [
        0.00244140625,
        -0.533203125
      ],
      "type": "VEC2"
    },
    {
      "bufferView": 1,
      "byteOffset": 278312,
      "componentType": 5126,
      "count": 34789,
      "max": [
        0.9970703125,
        0.9963531494140625
      ],
      "min": [
        0.00244140625,
        -0.533203125
      ],
      "type": "VEC2"
    },
    {
      "bufferView": 0,
      "componentType": 5125,
      "count": 119538,
      "type": "SCALAR"
    },
    {
      "bufferView": 2,
      "byteOffset": 834936,
      "componentType": 5126,
      "count": 66,
      "max": [
        1.0150388479232788,
        17.281469345092773,
        -1.7559388875961304
      ],
      "min": [
        -1.2395877838134766,
        15.026738166809082,
        -1.8133137226104736
      ],
      "type": "VEC3"
    },
    {
      "bufferView": 2,
      "byteOffset": 835728,
      "componentType": 5126,
      "count": 66,
      "max": [
        0.1102626621723175,
        0.12625037133693695,
        -0.9908730387687683
      ],
      "min": [
        -0.12622664868831635,
        -0.12847726047039032,
        -0.9998700618743896
      ],
      "type": "VEC3"
    },
    {
      "bufferView": 1,
      "byteOffset": 556624,
      "componentType": 5126,
      "count": 66,
      "max": [
        0.5322265625,
        0.49560546875
      ],
      "min": [
        0.499755859375,
        0.46240234375
      ],
      "type": "VEC2"
    },
    {
      "bufferView": 0,
      "byteOffset": 478152,
      "componentType": 5125,
      "count": 246,
      "type": "SCALAR"
    }
  ],
  "asset": {
    "extras": {
      "author": "blazitt (https://sketchfab.com/blazitt)",
      "license": "CC-BY-4.0 (http://creativecommons.org/licenses/by/4.0/)",
      "source": "https://sketchfab.com/3d-models/aug-counter-strike-2-3262a5530bbc40e984f796b0e152fc1f",
      "title": "AUG Counter Strike 2"
    },
    "generator": "Sketchfab-15.29.0",
    "version": "2.0"
  },
  "bufferViews": [
    {
      "buffer": 0,
      "byteLength": 479136,
      "name": "floatBufferViews",
      "target": 34963
    },
    {
      "buffer": 0,
      "byteLength": 557152,
      "byteOffset": 479136,
      "byteStride": 8,
      "name": "floatBufferViews",
      "target": 34962
    },
    {
      "buffer": 0,
      "byteLength": 836520,
      "byteOffset": 1036288,
      "byteStride": 12,
      "name": "floatBufferViews",
      "target": 34962
    },
    {
      "buffer": 0,
      "byteLength": 556624,
      "byteOffset": 1872808,
      "byteStride": 16,
      "name": "floatBufferViews",
      "target": 34962
    }
  ],
  "buffers": [
    {
      "byteLength": 2429432,
      "uri": "scene.bin"
    }
  ],
  "images": [
    {
      "uri": "textures/weapon_rif_aug_baseColor.png"
    },
    {
      "uri": "textures/weapon_rif_aug_normal.png"
    }
  ],
  "materials": [
    {
      "doubleSided": true,
      "name": "weapon_rif_aug",
      "normalTexture": {
        "index": 1,
        "texCoord": 1
      },
      "pbrMetallicRoughness": {
        "baseColorTexture": {
          "index": 0
        },
        "metallicFactor": 0.0,
        "roughnessFactor": 0.8211145618000169
      }
    },
    {
      "doubleSided": true,
      "name": "shared_scope_lens",
      "pbrMetallicRoughness": {
        "baseColorFactor": [
          0.8,
          0.8,
          0.8,
          1.0
        ],
        "metallicFactor": 0.0,
        "roughnessFactor": 0.8211145618000169
      }
    }
  ],
  "meshes": [
    {
      "name": "AUG_CS2_weapon_rif_aug_0",
      "primitives": [
        {
          "attributes": {
            "NORMAL": 1,
            "POSITION": 0,
            "TANGENT": 2,
            "TEXCOORD_0": 3,
            "TEXCOORD_1": 4
          },
          "indices": 5,
          "material": 0,
          "mode": 4
        }
      ]
    },
    {
      "name": "AUG_CS2_shared_scope_lens_0",
      "primitives": [
        {
          "attributes": {
            "NORMAL": 7,
            "POSITION": 6,
            "TEXCOORD_0": 8
          },
          "indices": 9,
          "material": 1,
          "mode": 4
        }
      ]
    }
  ],
  "nodes": [
    {
      "children": [
        1
      ],
      "matrix": [
        1.0,
        0.0,
        0.0,
        0.0,
        0.0,
        2.220446049250313e-16,
        -1.0,
        0.0,
        0.0,
        1.0,
        2.220446049250313e-16,
        0.0,
        0.0,
        0.0,
        0.0,
        1.0
      ],
      "name": "Sketchfab_model"
    },
    {
      "children": [
        2
      ],
      "matrix": [
        0.009999999776482582,
        0.0,
        0.0,
        0.0,
        0.0,
        0.0,
        0.009999999776482582,
        0.0,
        0.0,
        -0.009999999776482582,
        0.0,
        0.0,
        0.0,
        0.0,
        0.0,
        1.0
      ],
      "name": "AUG_CS2.fbx"
    },
    {
      "children": [
        3
      ],
      "name": "RootNode"
    },
    {
      "children": [
        4,
        5
      ],
      "name": "AUG_CS2"
    },
    {
      "mesh": 0,
      "name": "AUG_CS2_weapon_rif_aug_0"
    },
    {
      "mesh": 1,
      "name": "AUG_CS2_shared_scope_lens_0"
    }
  ],
  "samplers": [
    {
      "magFilter": 9729,
      "minFilter": 9987,
      "wrapS": 10497,
      "wrapT": 10497
    }
  ],
  "scene": 0,
  "scenes": [
    {
      "name": "Sketchfab_Scene",
      "nodes": [
        0
      ]
    }
  ],
  "textures": [
    {
      "sampler": 0,
      "source": 0
    },
    {
      "sampler": 0,
      "source": 1
    }
  ]
}
