{
  "accessors": [
    {
      "bufferView": 2,
      "componentType": 5126,
      "count": 288,
      "max": [
        0.03633800148963928,
        1.3381880521774292,
        0.7543320059776306
      ],
      "min": [
        -0.036598000675439835,
        1.1634279489517212,
        0.6781569719314575
      ],
      "type": "VEC3"
    },
    {
      "bufferView": 2,
      "byteOffset": 3456,
      "componentType": 5126,
      "count": 288,
      "max": [
        0.7045019268989563,
        0.9382748603820801,
        0.9975042939186096
      ],
      "min": [
        -0.7045019268989563,
        -0.9667031168937683,
        -0.7144050002098083
      ],
      "type": "VEC3"
    },
    {
      "bufferView": 0,
      "componentType": 5125,
      "count": 960,
      "type": "SCALAR"
    },
    {
      "bufferView": 2,
      "byteOffset": 6912,
      "componentType": 5126,
      "count": 9452,
      "max": [
        0.18433299660682678,
        2.2680859565734863,
        0.7253959774971008
      ],
      "min": [
        -0.18433299660682678,
        -0.831188976764679,
        -0.9506800174713135
      ],
      "type": "VEC3"
    },
    {
      "bufferView": 2,
      "byteOffset": 120336,
      "componentType": 5126,
      "count": 9452,
      "max": [
        1.0,
        1.0,
        1.0
      ],
      "min": [
        -1.0,
        -1.0,
        -1.0
      ],
      "type": "VEC3"
    },
    {
      "bufferView": 1,
      "componentType": 5126,
      "count": 9452,
      "max": [
        1.0004149675369263,
        1.0083149671554565
      ],
      "min": [
        0.0,
        -0.008360999636352062
      ],
      "type": "VEC2"
    },
    {
      "bufferView": 0,
      "byteOffset": 3840,
      "componentType": 5125,
      "count": 30903,
      "type": "SCALAR"
    },
    {
      "bufferView": 2,
      "byteOffset": 233760,
      "componentType": 5126,
      "count": 9905,
      "max": [
        0.17605699598789215,
        2.052596092224121,
        0.7411010265350342
      ],
      "min": [
        -0.17605699598789215,
        -2.323591947555542,
        -0.6964960098266602
      ],
      "type": "VEC3"
    },
    {
      "bufferView": 2,
      "byteOffset": 352620,
      "componentType": 5126,
      "count": 9905,
      "max": [
        1.0,
        1.0,
        1.0
      ],
      "min": [
        -1.0,
        -1.0,
        -1.0
      ],
      "type": "VEC3"
    },
    {
      "bufferView": 1,
      "byteOffset": 75616,
      "componentType": 5126,
      "count": 9905,
      "max": [
        1.000035047531128,
        1.000040054321289
      ],
      "min": [
        0.0,
        -0.00030700000934302807
      ],
      "type": "VEC2"
    },
    {
      "bufferView": 0,
      "byteOffset": 127452,
      "componentType": 5125,
      "count": 29352,
      "type": "SCALAR"
    }
  ],
  "asset": {
    "extras": {
      "author": "Your Local Loser (https://sketchfab.com/YourLocalLoser)",
      "license": "CC-BY-4.0 (http://creativecommons.org/licenses/by/4.0/)",
      "source": "https://sketchfab.com/3d-models/g36c-15843d0048d7420d82dfdb3a3ca252e8",
      "title": "G36c"
    },
    "generator": "Sketchfab-12.68.0",
    "version": "2.0"
  },
  "bufferViews": [
    {
      "buffer": 0,
      "byteLength": 244860,
      "name": "floatBufferViews",
      "target": 34963
    },
    {
      "buffer": 0,
      "byteLength": 154856,
      "byteOffset": 244860,
      "byteStride": 8,
      "name": "floatBufferViews",
      "target": 34962
    },
    {
      "buffer": 0,
      "byteLength": 471480,
      "byteOffset": 399716,
      "byteStride": 12,
      "name": "floatBufferViews",
      "target": 34962
    }
  ],
  "buffers": [
    {
      "byteLength": 871196,
      "uri": "scene.bin"
    }
  ],
  "extensionsUsed": [
    "KHR_materials_clearcoat"
  ],
  "materials": [
    {
      "doubleSided": true,
      "extensions": {
        "KHR_materials_clearcoat": {
          "clearcoatFactor": 0.026030741355513805,
          "clearcoatRoughnessFactor": 0.04
        }
      },
      "name": "None",
      "pbrMetallicRoughness": {
        "baseColorFactor": [
          0.031214448238232384,
          0.032246648017897846,
          0.04011232605020126,
          1.0
        ],
        "roughnessFactor": 0.3908411311554153
      }
    }
  ],
  "meshes": [
    {
      "name": "Object_0",
      "primitives": [
        {
          "attributes": {
            "NORMAL": 1,
            "POSITION": 0
          },
          "indices": 2,
          "material": 0,
          "mode": 4
        }
      ]
    },
    {
      "name": "Object_1",
      "primitives": [
        {
          "attributes": {
            "NORMAL": 4,
            "POSITION": 3,
            "TEXCOORD_0": 5
          },
          "indices": 6,
          "material": 0,
          "mode": 4
        }
      ]
    },
    {
      "name": "Object_2",
      "primitives": [
        {
          "attributes": {
            "NORMAL": 8,
            "POSITION": 7,
            "TEXCOORD_0": 9
          },
          "indices": 10,
          "material": 0,
          "mode": 4
        }
      ]
    }
  ],
  "nodes": [
    {
      "children": [
        1
      ],
      "matrix": [
        0.2664850354194641,
        0.0,
        0.0,
        0.0,
        0.0,
        5.917156440814788e-17,
        -0.2664850354194641,
        0.0,
        0.0,
        0.2664850354194641,
        5.917156440814788e-17,
        0.0,
        0.0,
        0.0,
        0.0,
        1.0
      ],
      "name": "Sketchfab_model"
    },
    {
      "children": [
        2,
        3,
        4
      ],
      "name": "g36c.obj.cleaner.materialmerger.gles"
    },
    {
      "mesh": 0,
      "name": "Object_2"
    },
    {
      "mesh": 1,
      "name": "Object_3"
    },
    {
      "mesh": 2,
      "name": "Object_4"
    }
  ],
  "scene": 0,
  "scenes": [
    {
      "name": "Sketchfab_Scene",
      "nodes": [
        0
      ]
    }
  ]
}
