{
  "accessors": [
    {
      "bufferView": 2,
      "componentType": 5126,
      "count": 62295,
      "max": [
        2.5427000522613525,
        62.41889953613281,
        7.772200107574463
      ],
      "min": [
        -4.478499889373779,
        -22.747600555419922,
        -13.077500343322754
      ],
      "type": "VEC3"
    },
    {
      "bufferView": 2,
      "byteOffset": 747540,
      "componentType": 5126,
      "count": 62295,
      "max": [
        1.0,
        1.0,
        1.0
      ],
      "min": [
        -1.0,
        -1.0,
        -1.0
      ],
      "type": "VEC3"
    },
    {
      "bufferView": 1,
      "componentType": 5126,
      "count": 62295,
      "max": [
        2.984375,
        0.9980469942092896
      ],
      "min": [
        0.0019529999699443579,
        0.0029299999587237835
      ],
      "type": "VEC2"
    },
    {
      "bufferView": 0,
      "componentType": 5125,
      "count": 69477,
      "type": "SCALAR"
    },
    {
      "bufferView": 2,
      "byteOffset": 1495080,
      "componentType": 5126,
      "count": 988,
      "max": [
        1.0833590030670166,
        21.572742462158203,
        13.887306213378906
      ],
      "min": [
        -1.0833590030670166,
        9.819515228271484,
        -5.633917808532715
      ],
      "type": "VEC3"
    },
    {
      "bufferView": 2,
      "byteOffset": 1506936,
      "componentType": 5126,
      "count": 988,
      "max": [
        1.0,
        0.9983313679695129,
        0.9963198900222778
      ],
      "min": [
        -1.0,
        -0.9982051849365234,
        -0.9964133501052856
      ],
      "type": "VEC3"
    },
    {
      "bufferView": 1,
      "byteOffset": 498360,
      "componentType": 5126,
      "count": 988,
      "max": [
        1.9941409826278687,
        0.4365229904651642
      ],
      "min": [
        0.7685549855232239,
        0.005859000142663717
      ],
      "type": "VEC2"
    },
    {
      "bufferView": 0,
      "byteOffset": 277908,
      "componentType": 5125,
      "count": 1002,
      "type": "SCALAR"
    }
  ],
  "asset": {
    "extras": {
      "author": "momsboxtv (https://sketchfab.com/momsboxtv)",
      "license": "CC-BY-4.0 (http://creativecommons.org/licenses/by/4.0/)",
      "source": "https://sketchfab.com/3d-models/ak12-3d-model-assault-rifle-d431b6b4931743a79536b1308da21c7e",
      "title": "AK12 - 3D Model Assault Rifle"
    },
    "generator": "Sketchfab-15.34.0",
    "version": "2.0"
  },
  "bufferViews": [
    {
      "buffer": 0,
      "byteLength": 281916,
      "name": "floatBufferViews",
      "target": 34963
    },
    {
      "buffer": 0,
      "byteLength": 506264,
      "byteOffset": 281916,
      "byteStride": 8,
      "name": "floatBufferViews",
      "target": 34962
    },
    {
      "buffer": 0,
      "byteLength": 1518792,
      "byteOffset": 788180,
      "byteStride": 12,
      "name": "floatBufferViews",
      "target": 34962
    }
  ],
  "buffers": [
    {
      "byteLength": 2306972,
      "uri": "scene.bin"
    }
  ],
  "materials": [
    {
      "doubleSided": true,
      "name": "mtl_ak12_1_royaljester.001",
      "pbrMetallicRoughness": {
        "baseColorFactor": [
          0.05729783433459911,
          0.05729783433459911,
          0.05729783433459911,
          1.0
        ],
        "metallicFactor": 0.6140971096292864,
        "roughnessFactor": 0.5
      }
    },
    {
      "doubleSided": true,
      "name": "mtl_ak12_1_sp_fm",
      "pbrMetallicRoughness": {
        "baseColorFactor": [
          0.07680023405785619,
          0.07680023405785619,
          0.07680023405785619,
          1.0
        ],
        "metallicFactor": 0.6872401896843876,
        "roughnessFactor": 0.5
      }
    }
  ],
  "meshes": [
    {
      "name": "Object_0",
      "primitives": [
        {
          "attributes": {
            "NORMAL": 1,
            "POSITION": 0,
            "TEXCOORD_0": 2
          },
          "indices": 3,
          "material": 0,
          "mode": 4
        }
      ]
    },
    {
      "name": "Object_1",
      "primitives": [
        {
          "attributes": {
            "NORMAL": 5,
            "POSITION": 4,
            "TEXCOORD_0": 6
          },
          "indices": 7,
          "material": 1,
          "mode": 4
        }
      ]
    }
  ],
  "nodes": [
    {
      "children": [
        1
      ],
      "matrix": [
        1.0,
        0.0,
        0.0,
        0.0,
        0.0,
        2.220446049250313e-16,
        -1.0,
        0.0,
        0.0,
        1.0,
        2.220446049250313e-16,
        0.0,
        0.0,
        0.0,
        0.0,
        1.0
      ],
      "name": "Sketchfab_model"
    },
    {
      "children": [
        2
      ],
      "name": "root"
    },
    {
      "children": [
        3,
        5
      ],
      "matrix": [
        1.0,
        0.0,
        0.0,
        0.0,
        0.0,
        2.220446049250313e-16,
        1.0,
        0.0,
        0.0,
        -1.0,
        2.220446049250313e-16,
        0.0,
        0.0,
        0.0,
        0.0,
        1.0
      ],
      "name": "GLTF_SceneRootNode"
    },
    {
      "children": [
        4
      ],
      "matrix": [
        0.011610292829573154,
        0.0,
        0.0,
        0.0,
        0.0,
        -1.9573490457500293e-09,
        0.01161029282957299,
        0.0,
        0.0,
        -0.01161029282957299,
        -1.9573490457500293e-09,
        0.0,
        0.0003935098648071289,
        0.0,
        0.0003768503665924072,
        1.0
      ],
      "name": "ak12_1_royaljester.001_0"
    },
    {
      "mesh": 0,
      "name": "Object_4"
    },
    {
      "children": [
        6
      ],
      "matrix": [
        0.011610292829573154,
        0.0,
        0.0,
        0.0,
        0.0,
        -1.9573490457500293e-09,
        0.01161029282957299,
        0.0,
        0.0,
        -0.01161029282957299,
        -1.9573490457500293e-09,
        0.0,
        -0.0003463923931121826,
        0.0,
        0.0075875818729400635,
        1.0
      ],
      "name": "ak12_1_sp_fm_1"
    },
    {
      "mesh": 1,
      "name": "Object_6"
    }
  ],
  "scene": 0,
  "scenes": [
    {
      "name": "Sketchfab_Scene",
      "nodes": [
        0
      ]
    }
  ]
}
